<svg class="main-svg" xmlns="http://www.w3.org/2000/svg" xmlns:xlink="http://www.w3.org/1999/xlink" width="1050" height="787" style="" viewBox="0 0 1050 787"><rect x="0" y="0" width="1050" height="787" style="fill: rgb(255, 255, 255); fill-opacity: 1;"/><defs id="defs-4ddb34"><g class="clips"><clipPath id="clip4ddb34xyplot" class="plotclip"><rect width="840" height="607"/></clipPath><clipPath class="axesclip" id="clip4ddb34x"><rect x="80" y="0" width="840" height="787"/></clipPath><clipPath class="axesclip" id="clip4ddb34y"><rect x="0" y="100" width="1050" height="607"/></clipPath><clipPath class="axesclip" id="clip4ddb34xy"><rect x="80" y="100" width="840" height="607"/></clipPath></g><g class="gradients"/><g class="patterns"/></defs><g class="bglayer"><rect class="bg" x="80" y="100" width="840" height="607" style="fill: rgb(229, 236, 246); fill-opacity: 1; stroke-width: 0;"/></g><g class="layer-below"><g class="imagelayer"/><g class="shapelayer"/></g><g class="cartesianlayer"><g class="subplot xy"><g class="layer-subplot"><g class="shapelayer"/><g class="imagelayer"/></g><g class="minor-gridlayer"><g class="x"/><g class="y"/></g><g class="gridlayer"><g class="x"><path class="xgrid crisp" transform="translate(211.64,0)" d="M0,100v607" style="stroke: rgb(255, 255, 255); stroke-opacity: 1; stroke-width: 1px;"/><path class="xgrid crisp" transform="translate(345.45,0)" d="M0,100v607" style="stroke: rgb(255, 255, 255); stroke-opacity: 1; stroke-width: 1px;"/><path class="xgrid crisp" transform="translate(477.09,0)" d="M0,100v607" style="stroke: rgb(255, 255, 255); stroke-opacity: 1; stroke-width: 1px;"/><path class="xgrid crisp" transform="translate(610.91,0)" d="M0,100v607" style="stroke: rgb(255, 255, 255); stroke-opacity: 1; stroke-width: 1px;"/><path class="xgrid crisp" transform="translate(742.55,0)" d="M0,100v607" style="stroke: rgb(255, 255, 255); stroke-opacity: 1; stroke-width: 1px;"/><path class="xgrid crisp" transform="translate(876.36,0)" d="M0,100v607" style="stroke: rgb(255, 255, 255); stroke-opacity: 1; stroke-width: 1px;"/></g><g class="y"><path class="ygrid crisp" transform="translate(0,632.2)" d="M80,0h840" style="stroke: rgb(255, 255, 255); stroke-opacity: 1; stroke-width: 1px;"/><path class="ygrid crisp" transform="translate(0,526.7)" d="M80,0h840" style="stroke: rgb(255, 255, 255); stroke-opacity: 1; stroke-width: 1px;"/><path class="ygrid crisp" transform="translate(0,421.19)" d="M80,0h840" style="stroke: rgb(255, 255, 255); stroke-opacity: 1; stroke-width: 1px;"/><path class="ygrid crisp" transform="translate(0,315.69)" d="M80,0h840" style="stroke: rgb(255, 255, 255); stroke-opacity: 1; stroke-width: 1px;"/><path class="ygrid crisp" transform="translate(0,210.18)" d="M80,0h840" style="stroke: rgb(255, 255, 255); stroke-opacity: 1; stroke-width: 1px;"/><path class="ygrid crisp" transform="translate(0,104.68)" d="M80,0h840" style="stroke: rgb(255, 255, 255); stroke-opacity: 1; stroke-width: 1px;"/></g></g><g class="zerolinelayer"/><path class="xlines-below"/><path class="ylines-below"/><g class="overlines-below"/><g class="xaxislayer-below"/><g class="yaxislayer-below"/><g class="overaxes-below"/><g class="plot" transform="translate(80,100)" clip-path="url(#clip4ddb34xyplot)"><g class="scatterlayer mlayer"><g class="trace scatter trace983e93" style="stroke-miterlimit: 2; opacity: 1;"><g class="fills"/><g class="errorbars"/><g class="lines"><path class="js-line" d="M0,433.3L1.45,397.35L2.18,405.89L5.09,312.78L5.82,318.51L8,385.31L8.73,349.51L9.45,329.77L10.18,354.69L11.64,365.6L12.36,356.75L13.82,368.17L14.55,417.99L15.27,394.99L16,404.88L18.18,399.59L18.91,422.14L20.36,381.16L21.09,381.65L21.82,393.84L22.55,389.38L24,347.86L24.73,353.63L26.18,328.94L26.91,332.76L28.36,252.81L29.09,269.3L29.82,237.75L30.55,242.01L31.27,246.23L32,229.22L32.73,237.37L33.45,224.13L34.18,193.02L34.91,197.97L36.36,151.34L37.09,136.14L38.55,228.09L39.27,218.8L40.73,254.31L41.45,255.9L42.18,266.99L42.91,219.58L43.64,232.79L44.36,210.01L45.09,230.87L45.82,227.01L46.55,227.16L47.27,202.96L48,191.99L48.73,164.79L50.18,133.34L50.91,138.33L51.64,97.07L52.36,117.54L53.09,153.36L53.82,143.89L54.55,122.1L55.27,132.77L56,127.63L56.73,127.98L57.45,136.31L58.18,167.9L58.91,165.69L59.64,186.42L60.36,197.71L61.09,161.49L61.82,152.67L62.55,152.91L63.27,133.92L64.73,121.59L65.45,119.72L66.18,116.68L66.91,135.46L68.36,120.12L69.09,129.26L69.82,151.87L70.55,127.87L71.27,128.7L72,112.37L72.73,108.02L73.45,111.31L74.18,73.22L74.91,77.37L75.64,75.22L76.36,93.59L77.09,102.97L77.82,150.1L78.55,155.29L79.27,147.4L81.45,204.15L82.18,215.15L82.91,226.19L83.64,173.26L84.36,162.59L85.09,164.79L85.82,178.18L86.55,133.92L87.27,133.1L88,145.73L88.73,139.72L89.45,180.52L90.18,137.36L90.91,148.2L92.36,122.8L93.09,128.83L93.82,153.87L94.55,144.95L95.27,224.65L96,218.68L96.73,216.95L97.45,249.87L98.18,253.08L98.91,283.87L99.64,290.5L100.36,352.82L101.09,312.94L101.82,349.63L102.55,347.18L103.27,376.37L104,334.85L104.73,338.05L105.45,328.64L106.18,337.68L107.64,378L108.36,366.79L109.09,349.33L109.82,356.17L111.27,329.54L112,353.96L112.73,368.12L113.45,364.85L114.91,390.06L115.64,349.2L116.36,355.98L117.09,349.32L117.82,368.12L118.55,330.71L120,316.91L120.73,338.63L121.45,341.73L122.18,365.64L122.91,367.45L123.64,366.58L124.36,409.01L125.09,400.26L126.55,377.51L127.27,409.42L128,403.63L128.73,377.64L129.45,379.91L130.18,364.79L131.64,389.01L132.36,385.58L133.82,370.91L134.55,387.18L135.27,382.02L136,386.02L136.73,396.34L137.45,386.63L138.18,389.56L138.91,381.96L140.36,398.19L141.09,396.92L142.55,411.7L143.27,410.52L144,407.74L144.73,418.07L145.45,428.73L146.18,404.43L146.91,402.29L147.64,388.91L149.09,370.25L149.82,349.28L151.27,321.24L152,321.1L152.73,297.61L153.45,304.04L155.64,340.68L156.36,323.86L157.82,291.48L158.55,273.13L159.27,281.12L160,254.04L162.18,274.47L162.91,238.97L165.09,257.84L165.82,271.66L166.55,270.54L167.27,250.32L168,222.66L168.73,227.24L170.18,220.48L170.91,239.89L171.64,226.65L172.36,247.95L173.09,225.62L173.82,227.27L174.55,228.03L175.27,246.76L176,245.58L176.73,227.85L178.18,215.42L178.91,216.27L180.36,187.9L181.09,249.33L181.82,256.93L182.55,253.76L183.27,269.67L184,266.32L184.73,257.22L185.45,268.83L186.91,234.93L187.64,239.08L188.36,244.52L189.09,233.85L189.82,244.59L190.55,291.19L191.27,313.88L192,283.48L192.73,269.55L193.45,291.23L194.18,292.53L194.91,287.34L196.36,310.28L197.09,304.69L198.55,235.56L199.27,239.83L200.73,225.05L201.45,199.71L202.18,159.12L202.91,175.53L203.64,173.83L204.36,163.27L205.09,165.35L205.82,136.72L206.55,151.95L207.27,137.6L208,138.44L208.73,93.37L209.45,100.77L210.18,93.79L210.91,88.81L211.64,65.22L212.36,46.96L213.09,86.87L213.82,102.88L214.55,95.48L215.27,100.36L216,78.11L217.45,126.2L218.18,103.62L218.91,86.68L219.64,90.26L221.09,99.59L221.82,76.14L222.55,78.85L223.27,94.86L224,98.31L224.73,94.07L225.45,75.08L226.18,30.35L226.91,36.63L227.64,57.48L228.36,57.96L229.09,66.34L229.82,63.03L230.55,52.51L232,108.48L232.73,106.3L233.45,142.45L234.18,130.02L234.91,113.38L235.64,123.58L236.36,149.33L237.09,135.83L237.82,149.43L238.55,138.94L239.27,178.03L240,164.89L241.45,133.33L242.18,141.78L242.91,139.41L243.64,147.34L245.09,224.12L245.82,222.35L247.27,208.3L248,210.36L249.45,244.77L250.18,222.41L250.91,214.65L251.64,250.11L252.36,251.43L253.09,227.33L254.55,255.76L255.27,248.94L256,250.43L256.73,248.6L257.45,226.91L258.18,230.16L259.64,207.01L260.36,211.15L261.09,207.15L261.82,208.93L263.27,253.2L264,245.46L264.73,254.66L265.45,240.09L266.18,243.7L266.91,253.06L267.64,258.97L268.36,283.54L269.09,287.84L269.82,304.76L271.27,301.03L272,301.98L273.45,279.53L274.18,293.85L275.64,287.67L276.36,288.34L277.09,297.45L277.82,296.13L279.27,314.02L280,358.57L280.73,373.63L281.45,360.48L282.91,353.33L283.64,354.41L284.36,351.39L285.09,344.57L285.82,340.84L286.55,343.16L288,334.45L288.73,353.34L289.45,351.21L290.18,305.36L290.91,305.99L291.64,295.74L293.09,277.74L293.82,275.42L296,297.51L296.73,298.01L297.45,293.9L298.18,272.92L298.91,279.39L299.64,315.52L300.36,320.87L301.09,319.9L302.55,352.05L303.27,339.28L304,349.72L304.73,338.79L305.45,329.48L306.18,330.63L306.91,345.36L307.64,287.5L308.36,275.25L309.09,279.79L309.82,295.33L310.55,330.29L311.27,327.52L312,337.86L312.73,341.64L313.45,334.52L314.18,300.27L314.91,327.13L315.64,333.91L316.36,332.76L317.09,343.88L317.82,324.71L318.55,328.17L319.27,309.12L320,311.16L320.73,302.19L321.45,298.08L322.18,308.03L322.91,309.82L323.64,296.31L326.55,273.71L327.27,249.23L328.73,242.43L329.45,246.68L330.18,262.76L330.91,254.92L331.64,259.27L332.36,253.11L333.09,251.32L333.82,262.58L334.55,287.36L335.27,284.23L336,297.06L336.73,291.84L337.45,297.9L338.18,326.24L339.64,308.88L340.36,321.87L341.09,315.35L341.82,316.72L342.55,324.18L343.27,312.48L344,305.34L344.73,306.69L346.91,326.61L347.64,326.79L348.36,316.36L349.09,341.06L350.55,323.58L351.27,335.86L352,345.3L352.73,337.35L353.45,336.71L354.18,344.93L354.91,324.38L355.64,357.33L357.09,368.65L357.82,383.87L358.55,423.57L359.27,415.91L360,437.92L360.73,436.75L361.45,434.26L362.18,425.63L362.91,412.93L363.64,428.15L364.36,422.21L365.09,440.2L365.82,423.38L366.55,435.13L367.27,432.69L368,423.28L368.73,436.21L369.45,430.33L370.18,431.32L370.91,434.43L371.64,441.18L372.36,439.2L373.09,432.54L373.82,408.48L374.55,407.79L375.27,428.82L376,421.77L376.73,429.82L378.18,427.68L378.91,412.24L379.64,414.51L380.36,424.44L381.09,425.52L381.82,436.37L382.55,443.99L383.27,460.85L384.73,508.92L385.45,505.06L386.18,528.18L386.91,527.23L387.64,542.57L388.36,526.37L389.82,524.71L390.55,532.34L392,519.21L392.73,516.35L394.91,529.24L395.64,531.11L397.82,540.2L398.55,539.62L399.27,529.76L400,530.2L400.73,526.42L401.45,514.93L402.18,513.94L402.91,515.41L405.09,539.34L405.82,529.97L408,519.65L408.73,523.98L410.18,496.44L410.91,498.11L411.64,498.82L412.36,503.56L413.09,506.19L413.82,504.68L415.27,519.12L416,501.28L416.73,491.65L417.45,492.06L418.18,493.63L420.36,500.78L421.09,502.17L421.82,504.45L422.55,497.5L423.27,500.96L424,498.7L424.73,492.01L425.45,498.82L426.91,490.45L427.64,485.75L428.36,485.53L429.09,486.63L430.55,491.23L431.27,497.01L432,498.31L432.73,522.95L434.18,516.02L434.91,517.44L435.64,516.08L436.36,517.49L437.09,515.31L437.82,529.46L439.27,536.25L440,529.06L440.73,534.35L441.45,531.68L442.18,530.86L442.91,532.52L443.64,533.98L444.36,532.34L445.09,534.18L445.82,544.47L447.27,539.27L448,517.63L450.18,507.19L450.91,529.07L451.64,529.66L452.36,535.36L453.09,534.6L453.82,530.86L454.55,538.33L455.27,537.01L456.73,547.53L457.45,538.39L458.18,539.61L458.91,543.42L459.64,544.84L460.36,540.4L461.09,541.59L461.82,538.25L462.55,536.71L463.27,538.2L464,539.46L464.73,542.29L466.18,528.65L466.91,530.51L469.09,538.36L469.82,538.04L471.27,542.21L472,541.09L472.73,538.71L473.45,540.8L474.18,542.04L474.91,539.93L475.64,536.94L476.36,539.23L477.82,542.19L478.55,540.93L479.27,540.56L480,536.77L480.73,539.11L481.45,531.19L482.18,524.08L482.91,529.19L484.36,523.57L485.09,525.5L486.55,527.08L487.27,530.52L488,529.99L488.73,520.1L489.45,518.67L490.18,522.43L490.91,525.84L491.64,547.59L492.36,575.66L493.09,557.66L495.27,570.68L496,567.88L496.73,565.07L497.45,567.34L499.64,566.9L500.36,571.33L501.09,576.65L501.82,572.4L503.27,568.03L504,568.9L505.45,569.71L506.18,572.11L506.91,569.71L507.64,562.08L508.36,564.2L509.09,562.92L509.82,564.82L510.55,562.48L511.27,564.12L512,562.91L512.73,565.46L513.45,561.39L514.91,562.5L515.64,562.76L516.36,561.68L517.09,555.61L517.82,555.25L518.55,560.01L519.27,567.57L520,566.02L520.73,566.41L521.45,569.77L522.18,564.84L522.91,565.78L525.82,565.52L526.55,564.7L528,568.58L528.73,567.63L530.18,568.63L530.91,567.81L532.36,567.23L533.09,565.3L533.82,565.58L534.55,564.36L535.27,564.33L536,562.89L536.73,561.78L537.45,559.15L538.91,544.13L539.64,533.16L540.36,521.9L541.09,522.91L542.55,519.95L543.27,524.94L544,520.74L544.73,503.96L545.45,502.9L546.18,503.5L546.91,501.24L547.64,504.39L548.36,499.31L549.09,500.21L549.82,499.72L550.55,500.22L551.27,492.38L552,502.24L553.45,492.92L554.18,495.57L554.91,495.81L555.64,497.05L557.09,503.08L557.82,497.76L558.55,501.19L559.27,513.01L560,514.78L560.73,512.47L562.18,513.13L562.91,508.77L563.64,486.75L564.36,493.97L565.82,483.24L566.55,486.54L567.27,481.25L568,485.4L569.45,490.56L570.18,498.46L570.91,498.7L571.64,494.63L572.36,495.04L573.09,499L573.82,493.73L574.55,495.54L576,507.37L576.73,506.51L577.45,506.57L578.18,508.78L578.91,514.08L579.64,528.37L580.36,530.23L581.09,525.53L583.27,482.13L584,486.04L584.73,478.89L585.45,453.88L586.18,458.71L586.91,447.39L587.64,450.26L588.36,445.94L589.09,455.11L589.82,444.28L591.27,453.13L592,447.86L592.73,456.87L593.45,455.52L594.18,444.12L594.91,447.45L595.64,442.75L596.36,443.46L597.82,450.01L598.55,446.03L599.27,445.92L600,447.33L601.45,448.35L602.18,444.29L603.64,424.22L604.36,425.23L605.82,421.57L606.55,423.34L607.27,423.37L608,432.55L608.73,422.5L609.45,439.12L610.91,455.43L611.64,449.73L613.09,452.81L613.82,444.55L614.55,443.34L615.27,432.25L616.73,434.63L617.45,434.41L618.18,446.83L618.91,440.62L619.64,437.18L620.36,438.86L621.09,431.61L621.82,438.26L624,451.4L624.73,451.79L626.18,460.41L626.91,460.63L628.36,456.32L629.09,457.96L629.82,454.14L630.55,460.12L631.27,459.51L632,456.98L632.73,460.95L633.45,459.92L634.18,455.97L634.91,465.37L637.09,459.74L637.82,446.9L640.73,460.25L641.45,455.72L642.18,457.56L642.91,457.09L643.64,471.43L644.36,455.83L645.09,465.25L645.82,463.54L646.55,463.83L647.27,470.47L648,469.53L648.73,469.93L649.45,469.76L650.18,478.14L652.36,463.51L653.09,465.35L653.82,459.92L654.55,444.34L655.27,426.41L656,427.62L656.73,419.36L657.45,420.91L658.18,421.63L658.91,423.84L659.64,419.44L660.36,425.79L661.82,421.66L662.55,420.47L663.27,420.15L664,414.5L666.18,427.66L666.91,423.09L668.36,424.89L669.09,422.33L669.82,420.15L670.55,422.57L671.27,411.13L672,423.17L674.18,425.16L674.91,428.21L675.64,427.61L676.36,428.89L677.09,427.66L677.82,429.11L678.55,425.81L679.27,435.38L680.73,433.5L681.45,435.03L682.91,433.48L683.64,434.34L684.36,434.82L685.09,430.12L685.82,435.65L686.55,435.36L688,436.8L688.73,436.81L689.45,435.34L690.18,429.17L691.64,432.72L692.36,433.05L693.09,432.86L693.82,434.26L694.55,432.94L695.27,435.45L696,440.4L696.73,461.89L697.45,468.38L698.18,467.89L698.91,466.9L699.64,467.59L700.36,468.57L701.09,464.35L702.55,468.4L703.27,468.81L704.73,467.78L705.45,450.68L706.18,455.21L706.91,469.62L707.64,471L708.36,470.28L709.09,469.22L709.82,470.88L711.27,471.5L712,466.37L713.45,470L714.18,470.67L714.91,477.74L715.64,470.66L717.09,463.21L717.82,462.48L719.27,463.26L720,460.94L720.73,456.12L721.45,456.96L722.18,462.91L722.91,462.79L723.64,462.79L724.36,466.19L725.09,465.75L725.82,466.61L726.55,465.18L727.27,458.12L728,459.28L728.73,458.69" style="vector-effect: none; fill: none; stroke: rgb(0, 0, 255); stroke-opacity: 1; stroke-width: 2px; opacity: 1;"/></g><g class="points"/><g class="text"/></g><g class="trace scatter trace06f26a" style="stroke-miterlimit: 2; opacity: 1;"><g class="fills"/><g class="errorbars"/><g class="lines"><path class="js-line" d="M729.45,447.97L730.91,453.81L731.64,449.92L732.36,453.96L733.09,448.36L734.55,448.48L735.27,452.19L736,454.22L736.73,459.69L737.45,460.92L738.18,459.8L738.91,459.81L739.64,456.67L740.36,442.32L741.09,443.41L741.82,444.34L742.55,440.21L744,427.56L744.73,426.76L746.18,385.54L746.91,379.19L748.36,385.45L749.09,383.55L749.82,378.82L750.55,379.2L751.27,377.45L752,369.33L753.45,376.77L754.18,373.08L755.64,373.55L756.36,369.27L757.09,367.03L757.82,356.08L758.55,349.53L759.27,351.39L760,352.27L760.73,358.1L761.45,368.27L762.18,343.55L762.91,361.76L763.64,357.1L764.36,357.22L765.09,348.77L765.82,347.81L766.55,365.36L767.27,348.28L768,349.79L769.45,344.44L770.18,347.79L770.91,350.16L771.64,344.08L772.36,343.79L773.09,345.33L775.27,321.42L776,300.3L776.73,278.14L777.45,281.67L778.18,286.45L778.91,277.23L779.64,281.88L780.36,281.32L781.09,308.07L781.82,305.89L783.27,289.29L784,300.83L784.73,297.56L785.45,306.8L786.18,293.51L786.91,297.24L788.36,280.37L789.09,279.01L789.82,281.74L790.55,289.37L791.27,283.07L792,294.6L792.73,284.87L793.45,293.47L794.18,299.04L794.91,298.44L795.64,297.29" style="vector-effect: none; fill: none; stroke: rgb(255, 0, 0); stroke-opacity: 1; stroke-width: 2px; opacity: 1;"/></g><g class="points"/><g class="text"/></g><g class="trace scatter tracef2fbee" style="stroke-miterlimit: 2; opacity: 1;"><g class="fills"/><g class="errorbars"/><g class="lines"><path class="js-line" d="M796.36,277.23L797.09,268.88L797.82,291.14L798.55,277.09L799.27,277.28L800,279.11L800.73,279.59L801.45,247.65L802.18,256.42L802.91,251.27L803.64,254L804.36,291.09L805.09,291.21L805.82,302.24L807.27,287.91L808,292.26L808.73,307.88L809.45,304.12L810.18,303.62L810.91,304.88L811.64,326.39L812.36,322.82L813.09,320.38L813.82,321.89L815.27,298.83L816,299.72L816.73,286.5L817.45,290.04L818.18,293.95L818.91,288.74L819.64,287.58L820.36,289.62L821.09,293.94L821.82,293.14L822.55,288.65L823.27,275.63L826.91,216.13L827.64,218.41L829.09,195.24L829.82,192.9L830.55,198.14L831.27,193.29L832,196.92L832.73,191.58L834.91,207.97L835.64,199.11L836.36,197.4L837.09,167.98L837.82,140.93L838.55,83.76L839.27,97.54L840,84.43" style="vector-effect: none; fill: none; stroke: rgb(0, 128, 0); stroke-opacity: 1; stroke-width: 2px; opacity: 1;"/></g><g class="points"/><g class="text"/></g></g></g><g class="overplot"/><path class="xlines-above crisp" d="M0,0" style="fill: none;"/><path class="ylines-above crisp" d="M0,0" style="fill: none;"/><g class="overlines-above"/><g class="xaxislayer-above"><g class="xtick"><text text-anchor="middle" x="0" y="720" transform="translate(80,0)" style="font-family: 'Open Sans', verdana, arial, sans-serif; font-size: 12px; fill: rgb(42, 63, 95); fill-opacity: 1; white-space: pre; opacity: 1;">Jan 2021</text></g><g class="xtick"><text text-anchor="middle" x="0" y="720" style="font-family: 'Open Sans', verdana, arial, sans-serif; font-size: 12px; fill: rgb(42, 63, 95); fill-opacity: 1; white-space: pre; opacity: 1;" transform="translate(211.64,0)">Jul 2021</text></g><g class="xtick"><text text-anchor="middle" x="0" y="720" style="font-family: 'Open Sans', verdana, arial, sans-serif; font-size: 12px; fill: rgb(42, 63, 95); fill-opacity: 1; white-space: pre; opacity: 1;" transform="translate(345.45,0)">Jan 2022</text></g><g class="xtick"><text text-anchor="middle" x="0" y="720" style="font-family: 'Open Sans', verdana, arial, sans-serif; font-size: 12px; fill: rgb(42, 63, 95); fill-opacity: 1; white-space: pre; opacity: 1;" transform="translate(477.09,0)">Jul 2022</text></g><g class="xtick"><text text-anchor="middle" x="0" y="720" style="font-family: 'Open Sans', verdana, arial, sans-serif; font-size: 12px; fill: rgb(42, 63, 95); fill-opacity: 1; white-space: pre; opacity: 1;" transform="translate(610.91,0)">Jan 2023</text></g><g class="xtick"><text text-anchor="middle" x="0" y="720" style="font-family: 'Open Sans', verdana, arial, sans-serif; font-size: 12px; fill: rgb(42, 63, 95); fill-opacity: 1; white-space: pre; opacity: 1;" transform="translate(742.55,0)">Jul 2023</text></g><g class="xtick"><text text-anchor="middle" x="0" y="720" style="font-family: 'Open Sans', verdana, arial, sans-serif; font-size: 12px; fill: rgb(42, 63, 95); fill-opacity: 1; white-space: pre; opacity: 1;" transform="translate(876.36,0)">Jan 2024</text></g></g><g class="yaxislayer-above"><g class="ytick"><text text-anchor="end" x="79" y="4.199999999999999" transform="translate(0,632.2)" style="font-family: 'Open Sans', verdana, arial, sans-serif; font-size: 12px; fill: rgb(42, 63, 95); fill-opacity: 1; white-space: pre; opacity: 1;">20k</text></g><g class="ytick"><text text-anchor="end" x="79" y="4.199999999999999" style="font-family: 'Open Sans', verdana, arial, sans-serif; font-size: 12px; fill: rgb(42, 63, 95); fill-opacity: 1; white-space: pre; opacity: 1;" transform="translate(0,526.7)">30k</text></g><g class="ytick"><text text-anchor="end" x="79" y="4.199999999999999" style="font-family: 'Open Sans', verdana, arial, sans-serif; font-size: 12px; fill: rgb(42, 63, 95); fill-opacity: 1; white-space: pre; opacity: 1;" transform="translate(0,421.19)">40k</text></g><g class="ytick"><text text-anchor="end" x="79" y="4.199999999999999" style="font-family: 'Open Sans', verdana, arial, sans-serif; font-size: 12px; fill: rgb(42, 63, 95); fill-opacity: 1; white-space: pre; opacity: 1;" transform="translate(0,315.69)">50k</text></g><g class="ytick"><text text-anchor="end" x="79" y="4.199999999999999" style="font-family: 'Open Sans', verdana, arial, sans-serif; font-size: 12px; fill: rgb(42, 63, 95); fill-opacity: 1; white-space: pre; opacity: 1;" transform="translate(0,210.18)">60k</text></g><g class="ytick"><text text-anchor="end" x="79" y="4.199999999999999" style="font-family: 'Open Sans', verdana, arial, sans-serif; font-size: 12px; fill: rgb(42, 63, 95); fill-opacity: 1; white-space: pre; opacity: 1;" transform="translate(0,104.68)">70k</text></g></g><g class="overaxes-above"/></g></g><g class="polarlayer"/><g class="smithlayer"/><g class="ternarylayer"/><g class="geolayer"/><g class="funnelarealayer"/><g class="pielayer"/><g class="iciclelayer"/><g class="treemaplayer"/><g class="sunburstlayer"/><g class="glimages"/><defs id="topdefs-4ddb34"><g class="clips"/><clipPath id="legend4ddb34"><rect width="101" height="86" x="0" y="0"/></clipPath></defs><g class="layer-above"><g class="imagelayer"/><g class="shapelayer"/></g><g class="infolayer"><g class="legend" pointer-events="all" transform="translate(936.8000000000001,100)"><rect class="bg" shape-rendering="crispEdges" width="101" height="86" x="0" y="0" style="stroke: rgb(68, 68, 68); stroke-opacity: 1; fill: rgb(255, 255, 255); fill-opacity: 1; stroke-width: 0px;"/><g class="scrollbox" transform="" clip-path="url(#legend4ddb34)"><text class="legendtitletext" text-anchor="start" x="2" y="18.2" style="font-family: 'Open Sans', verdana, arial, sans-serif; font-size: 14px; fill: rgb(42, 63, 95); fill-opacity: 1; white-space: pre;">Sections</text><g class="groups"><g class="traces" transform="translate(0,32.7)" style="opacity: 1;"><text class="legendtext" text-anchor="start" x="40" y="4.680000000000001" style="font-family: 'Open Sans', verdana, arial, sans-serif; font-size: 12px; fill: rgb(42, 63, 95); fill-opacity: 1; white-space: pre;">Train</text><g class="layers" style="opacity: 1;"><g class="legendfill"/><g class="legendlines"><path class="js-line" d="M5,0h30" style="fill: none; stroke: rgb(0, 0, 255); stroke-opacity: 1; stroke-width: 2px;"/></g><g class="legendsymbols"><g class="legendpoints"/></g></g><rect class="legendtoggle" x="0" y="-9.5" width="95.8125" height="19" style="fill: rgb(0, 0, 0); fill-opacity: 0;"/></g><g class="traces" transform="translate(0,51.7)" style="opacity: 1;"><text class="legendtext" text-anchor="start" x="40" y="4.680000000000001" style="font-family: 'Open Sans', verdana, arial, sans-serif; font-size: 12px; fill: rgb(42, 63, 95); fill-opacity: 1; white-space: pre;">Test</text><g class="layers" style="opacity: 1;"><g class="legendfill"/><g class="legendlines"><path class="js-line" d="M5,0h30" style="fill: none; stroke: rgb(255, 0, 0); stroke-opacity: 1; stroke-width: 2px;"/></g><g class="legendsymbols"><g class="legendpoints"/></g></g><rect class="legendtoggle" x="0" y="-9.5" width="95.8125" height="19" style="fill: rgb(0, 0, 0); fill-opacity: 0;"/></g><g class="traces" transform="translate(0,70.7)" style="opacity: 1;"><text class="legendtext" text-anchor="start" x="40" y="4.680000000000001" style="font-family: 'Open Sans', verdana, arial, sans-serif; font-size: 12px; fill: rgb(42, 63, 95); fill-opacity: 1; white-space: pre;">Validation</text><g class="layers" style="opacity: 1;"><g class="legendfill"/><g class="legendlines"><path class="js-line" d="M5,0h30" style="fill: none; stroke: rgb(0, 128, 0); stroke-opacity: 1; stroke-width: 2px;"/></g><g class="legendsymbols"><g class="legendpoints"/></g></g><rect class="legendtoggle" x="0" y="-9.5" width="95.8125" height="19" style="fill: rgb(0, 0, 0); fill-opacity: 0;"/></g></g></g><rect class="scrollbar" rx="20" ry="3" width="0" height="0" x="0" y="0" style="fill: rgb(128, 139, 164); fill-opacity: 1;"/></g><g class="g-gtitle"><text class="gtitle" x="52.5" y="50" text-anchor="start" dy="0em" style="font-family: 'Open Sans', verdana, arial, sans-serif; font-size: 17px; fill: rgb(42, 63, 95); opacity: 1; font-weight: normal; white-space: pre;">Train, Test and Validation Sections of Dataset BTC-USD</text></g><g class="g-xtitle"><text class="xtitle" x="500" y="748.3" text-anchor="middle" style="font-family: 'Open Sans', verdana, arial, sans-serif; font-size: 14px; fill: rgb(42, 63, 95); opacity: 1; font-weight: normal; white-space: pre;">Time</text></g><g class="g-ytitle"><text class="ytitle" transform="rotate(-90,34.66875,403.5)" x="34.66875" y="403.5" text-anchor="middle" style="font-family: 'Open Sans', verdana, arial, sans-serif; font-size: 14px; fill: rgb(42, 63, 95); opacity: 1; font-weight: normal; white-space: pre;">Close Price</text></g></g></svg>